<svg width="20" height="5" viewBox="0 0 20 5" fill="none" xmlns="http://www.w3.org/2000/svg">
<path id="Icon color" fill-rule="evenodd" clip-rule="evenodd" d="M2.5 5C1.11929 5 -5.0838e-08 3.88071 -1.1355e-07 2.5C-1.76262e-07 1.11929 1.11929 -4.70852e-08 2.5 -1.05168e-07C3.88071 -1.6325e-07 5 1.11929 5 2.5C5 3.88071 3.88071 5 2.5 5ZM7.5 2.5C7.5 3.88071 8.61929 5 10 5C11.3807 5 12.5 3.88071 12.5 2.5C12.5 1.11929 11.3807 -4.78753e-07 10 -4.20671e-07C8.61929 -3.62588e-07 7.5 1.11929 7.5 2.5ZM17.5 5C16.1193 5 15 3.88071 15 2.5C15 1.11929 16.1193 -6.78091e-07 17.5 -7.36174e-07C18.8807 -7.94256e-07 20 1.11929 20 2.5C20 3.88071 18.8807 5 17.5 5Z" fill="#060606"/>
</svg>
