<svg width="22" height="22" viewBox="0 0 22 22" fill="none" xmlns="http://www.w3.org/2000/svg">
<g id="moon (1) 1" clip-path="url(#clip0_1957_182)">
<path id="Vector" d="M18.6226 13.1139C17.2728 13.4924 15.8466 13.5048 14.4904 13.1499C13.1342 12.7949 11.897 12.0853 10.9057 11.0941C9.91444 10.1028 9.20489 8.86555 8.84992 7.50938C8.49495 6.15321 8.50735 4.72699 8.88586 3.3772C7.55509 3.7476 6.34458 4.4602 5.37492 5.44402C4.40526 6.42785 3.71028 7.64855 3.35921 8.98455C3.00814 10.3206 3.01323 11.7252 3.37398 13.0586C3.73472 14.3921 4.43853 15.6077 5.4153 16.5845C6.39206 17.5612 7.6077 18.2651 8.94113 18.6258C10.2745 18.9865 11.6792 18.9916 13.0152 18.6406C14.3512 18.2895 15.5719 17.5945 16.5558 16.6249C17.5396 15.6552 18.2522 14.4447 18.6226 13.1139V13.1139Z" stroke="black" stroke-width="1.3125" stroke-linecap="round" stroke-linejoin="round"/>
</g>
<defs>
<clipPath id="clip0_1957_182">
<rect width="22" height="22" fill="white"/>
</clipPath>
</defs>
</svg>
