<svg width="22" height="22" viewBox="0 0 22 22" fill="none" xmlns="http://www.w3.org/2000/svg">
<g id="shopping-cart-simple (1)" clip-path="url(#clip0_1957_193)">
<path id="Vector" d="M6.875 19.9375C7.63439 19.9375 8.25 19.3219 8.25 18.5625C8.25 17.8031 7.63439 17.1875 6.875 17.1875C6.11561 17.1875 5.5 17.8031 5.5 18.5625C5.5 19.3219 6.11561 19.9375 6.875 19.9375Z" fill="black"/>
<path id="Vector_2" d="M15.8125 19.9375C16.5719 19.9375 17.1875 19.3219 17.1875 18.5625C17.1875 17.8031 16.5719 17.1875 15.8125 17.1875C15.0531 17.1875 14.4375 17.8031 14.4375 18.5625C14.4375 19.3219 15.0531 19.9375 15.8125 19.9375Z" fill="black"/>
<path id="Vector_3" d="M3.63516 6.1875H19.0523L16.7836 14.1281C16.7026 14.4163 16.5293 14.6699 16.2902 14.85C16.0511 15.0301 15.7595 15.1267 15.4602 15.125H7.22734C6.92801 15.1267 6.63639 15.0301 6.39729 14.85C6.1582 14.6699 5.98485 14.4163 5.90391 14.1281L2.79297 3.24844C2.75186 3.10471 2.66502 2.9783 2.54562 2.88836C2.42621 2.79841 2.28074 2.74984 2.13125 2.75H0.6875" stroke="black" stroke-width="1.375" stroke-linecap="round" stroke-linejoin="round"/>
</g>
<defs>
<clipPath id="clip0_1957_193">
<rect width="22" height="22" fill="white"/>
</clipPath>
</defs>
</svg>
